PathFileType	4	(X/Y/Z)	C:\Users\Basilio\Documents\Thesis Gigler\squatting_fais\c3dfiles\075\SLS_back_pre4\markers_experimental.trc
DataRate	CameraRate	NumFrames	NumMarkers	Units	OrigDataRate	OrigDataStartFrame	OrigNumFrames
200.000000	200.000000	4	61	mm	200.000000	168	1351
Frame#	Time	FHD			LBHD			C7			T10			CLAV			LSHO			LUUPA			LMUPA			LDUPA			LLEP			LMEP			LRAD			LUL			LRFIN			RSHO			RUPA1			RMUPA			RDUPA			RLEP			RMEP			RRAD			RUL			RUFIN			LASI			RASI			USACR			LSACR			RSACR			LTHI1			LTHI2			LTHI3			LTHI4			LLFC			LMFC			LTIB1			LTIB2			LTIB3			LTIB4			LLMAL			LMMAL			LHEE			LMT1			LMT2			LMT5			RTHI			RTHI2			RTHI3			RTHI4			RLFC			RMFC			RTIB1			RTIB2			RTIB3			RTIB4			RLMAL			RMMAL			RHEE			RMT1			RMT2			RMT5			RBHD			
		X1	Y1	Z1	X2	Y2	Z2	X3	Y3	Z3	X4	Y4	Z4	X5	Y5	Z5	X6	Y6	Z6	X7	Y7	Z7	X8	Y8	Z8	X9	Y9	Z9	X10	Y10	Z10	X11	Y11	Z11	X12	Y12	Z12	X13	Y13	Z13	X14	Y14	Z14	X15	Y15	Z15	X16	Y16	Z16	X17	Y17	Z17	X18	Y18	Z18	X19	Y19	Z19	X20	Y20	Z20	X21	Y21	Z21	X22	Y22	Z22	X23	Y23	Z23	X24	Y24	Z24	X25	Y25	Z25	X26	Y26	Z26	X27	Y27	Z27	X28	Y28	Z28	X29	Y29	Z29	X30	Y30	Z30	X31	Y31	Z31	X32	Y32	Z32	X33	Y33	Z33	X34	Y34	Z34	X35	Y35	Z35	X36	Y36	Z36	X37	Y37	Z37	X38	Y38	Z38	X39	Y39	Z39	X40	Y40	Z40	X41	Y41	Z41	X42	Y42	Z42	X43	Y43	Z43	X44	Y44	Z44	X45	Y45	Z45	X46	Y46	Z46	X47	Y47	Z47	X48	Y48	Z48	X49	Y49	Z49	X50	Y50	Z50	X51	Y51	Z51	X52	Y52	Z52	X53	Y53	Z53	X54	Y54	Z54	X55	Y55	Z55	X56	Y56	Z56	X57	Y57	Z57	X58	Y58	Z58	X59	Y59	Z59	X60	Y60	Z60	X61	Y61	Z61	

169	0.84	-243.9439544677735	1716.936401367188	-811.9626464843752	-373.8319091796876	1595.221557617188	-898.7333984375002	-418.1264648437501	1477.310913085938	-844.303894042969	-425.5739746093751	1152.503784179688	-849.0090942382815	-275.3031921386719	1419.155151367188	-830.8679809570315	-296.8827514648438	1449.376953125	-993.3751220703127	-290.7536010742188	1260.671264648438	-1124.08544921875	-248.1886291503907	1241.507934570313	-1104.917114257813	-265.6130065917969	1197.968627929688	-1144.31201171875	-226.914535522461	1120.849243164063	-1143.872802734375	-300.8921813964844	1092.01220703125	-1091.067260742188	-138.421615600586	1108.181640625	-905.9008789062502	-90.19200134277345	1064.657592773438	-943.4652099609377	-80.06526947021486	1113.249755859375	-847.4470214843752	-326.0231018066407	1438.829956054688	-671.1711425781251	-331.6410827636719	1241.203979492188	-556.5412597656251	-288.7442016601563	1220.281372070313	-569.5335693359376	-314.2592163085938	1174.559692382813	-538.3335571289064	-284.6127319335938	1109.011352539063	-533.0528564453126	-332.6414184570313	1064.048950195313	-590.2657470703126	-131.3538208007813	1126.1748046875	-758.7683105468751	-99.10782623291018	1083.467651367188	-703.3543701171876	-56.24087524414064	1121.83056640625	-806.9870605468752	-255.3000946044922	983.224304199219	-970.224548339844	-261.2205200195313	991.4678955078127	-717.2606201171876	-416.5178527832032	1053.02490234375	-851.006286621094	-420.7778930664064	1021.154296875	-878.345153808594	-423.3802795410157	1022.630554199219	-821.0562133789065	-292.9714050292969	743.3284301757814	-1053.0634765625	-258.1821899414063	665.7355346679689	-1055.591674804688	-212.3380737304688	672.2734985351564	-1037.172119140625	-283.4393615722657	611.4609985351564	-1050.196655273438	-285.8351135253907	503.410369873047	-1047.744873046875	-247.9061737060547	481.7249450683595	-923.994323730469	-241.7286834716797	376.7237548828126	-1020.624633789063	-303.1694641113282	346.7374572753907	-1073.463500976563	-263.0348205566407	335.0041198730469	-1053.188110351563	-277.1983032226563	253.5742645263672	-1029.302856445313	-365.5204772949219	122.9602432250977	-1057.38232421875	-338.3353576660157	130.0018310546875	-975.5029907226565	-424.9184875488282	91.0039520263672	-1019.933044433594	-221.0294342041016	51.71291732788087	-984.9282836914065	-215.2652282714844	55.09132003784181	-1033.630615234375	-253.3905029296876	41.95641708374024	-1087.580932617188	-317.3664245605469	784.3848266601565	-658.3569946289064	-277.0894775390626	733.1035766601564	-662.7559814453126	-246.0284271240235	740.5094604492189	-673.5148315429689	-301.4769897460938	651.4671630859376	-675.7164306640626	-311.1274719238282	498.0280761718751	-710.8720703125001	-276.4955749511719	496.3031311035157	-835.6092529296877	-274.3408813476563	350.9997253417969	-785.780700683594	-330.3312072753907	275.6014404296876	-730.5798950195314	-295.6337280273438	268.6027832031251	-764.3142700195314	-312.3404541015626	227.7918395996094	-802.4119262695315	-391.814666748047	115.8141860961914	-769.6355590820315	-364.8621215820313	140.1717987060547	-850.1350708007815	-449.6330871582032	98.29328155517581	-825.3154907226565	-246.0093078613282	56.54003143310548	-836.7037353515627	-245.5436248779297	55.55395889282228	-794.2985839843752	-283.1148986816407	36.07635116577149	-741.7221679687501	nan	nan	nan	
170	0.845	-243.8771514892579	1716.827026367188	-811.4778442382815	-374.2350769042969	1595.232666015625	-897.9069824218752	-418.2613830566407	1477.2314453125	-843.6135253906252	-425.4752807617189	1152.51513671875	-848.453796386719	-275.3781738281251	1419.044311523438	-830.235534667969	-297.0419311523438	1449.346557617188	-992.6336059570315	-289.7472839355469	1260.694946289063	-1123.263427734375	-247.4669189453126	1241.861450195313	-1104.133178710938	-264.3795776367188	1198.224243164063	-1143.53271484375	-225.2049407958985	1121.3759765625	-1142.952758789063	-299.1332702636719	1092.150634765625	-1090.164794921875	-136.9847106933594	1108.286987304688	-904.9060058593752	-88.30033111572267	1064.94921875	-942.630798339844	-77.78166961669923	1113.572998046875	-846.3170166015627	-325.9277343750001	1438.746459960938	-670.5206298828126	-330.6040039062501	1241.343017578125	-555.5917968750001	-287.5319519042969	1220.6513671875	-568.5386352539064	-312.7096862792969	1174.856689453125	-537.1733398437501	-282.7262878417969	1109.520263671875	-531.8935546875001	-330.7484741210938	1063.97314453125	-588.8425292968751	-129.8475952148438	1126.548217773438	-757.8347167968751	-97.47646331787112	1084.094360351563	-702.4160156250001	-54.67995834350587	1122.45458984375	-806.2235107421877	-254.871078491211	982.9600219726565	-969.4418945312502	-261.2189636230469	991.354919433594	-716.6219482421876	-416.5172119140626	1052.972412109375	-850.4183349609377	-420.8739013671876	1021.01806640625	-877.7229003906252	-423.3563537597657	1022.635314941406	-820.508728027344	-292.9326477050782	743.3727416992189	-1052.768188476563	-257.8538208007813	665.7301025390626	-1055.35986328125	-212.0795593261719	672.2673950195314	-1036.8828125	-283.2113037109376	611.4269409179689	-1050.032958984375	-285.4391174316407	503.5301818847657	-1047.601928710938	-247.4248046875001	481.5687561035157	-923.8865966796877	-241.3732147216797	376.5678100585938	-1020.447998046875	-302.8156127929688	346.2889404296876	-1073.383422851563	-263.2443847656251	334.6484069824219	-1052.939208984375	-276.9745178222657	253.5328216552735	-1029.228881835938	-366.0689392089844	123.2344818115235	-1057.465698242188	-338.2456665039063	130.0406188964844	-975.4632568359377	-424.8832397460939	91.01290893554689	-1019.930725097656	-221.0320434570313	51.73449707031251	-984.8950195312502	-215.2046356201172	55.09205245971681	-1033.597045898438	-253.3881225585938	41.9980812072754	-1087.524291992188	-317.3562011718751	784.3294677734377	-657.9105224609376	-277.1312255859376	732.9359130859376	-662.6109619140626	-245.9944305419922	740.5016479492189	-673.0657958984376	-301.4713745117188	651.4515991210939	-675.3417358398439	-311.1065673828126	498.0240783691407	-710.5847167968751	-276.3562622070313	496.3208923339845	-835.3569946289065	-274.2633666992188	350.9798583984376	-785.4962158203127	-330.3246765136719	275.4868164062501	-730.3479614257814	-295.5407104492188	268.5831604003907	-764.0698242187501	-312.2576293945313	227.7646789550782	-802.2258911132815	-391.8211364746095	115.7749786376953	-769.5920410156252	-364.8016662597657	140.1907653808594	-850.050231933594	-449.6014099121095	98.298210144043	-825.265319824219	-245.9060821533204	56.4716262817383	-836.6066894531252	-245.5297851562501	55.5165481567383	-794.2529296875002	-283.1315612792969	36.0476417541504	-741.7266845703126	nan	nan	nan	
171	0.85	-243.9065704345704	1716.525390625	-810.9036254882815	-374.5906982421876	1595.014770507813	-897.1162109375002	-418.4441223144532	1476.993408203125	-842.750427246094	-425.8603820800782	1152.150146484375	-847.8619384765627	-275.0021667480469	1418.87060546875	-829.175964355469	-297.2560119628907	1449.345092773438	-991.9412231445315	-288.8024902343751	1260.76123046875	-1122.521606445313	-246.894760131836	1242.304443359375	-1103.587768554688	-262.9697875976563	1198.485961914063	-1142.572143554688	-223.2576141357422	1121.74951171875	-1141.947143554688	-297.1529541015626	1092.076049804688	-1089.560791015625	-135.190902709961	1108.117431640625	-903.967712402344	-86.19287109375001	1065.343017578125	-941.8312988281252	-76.75746154785158	1113.8955078125	-845.7857055664065	-326.0459594726563	1438.71337890625	-670.0027465820314	-329.5687255859376	1241.476928710938	-554.5968017578126	-286.4378967285157	1220.97021484375	-567.7224731445314	-311.3224792480469	1175.078857421875	-536.2507324218751	-280.9604187011719	1109.953247070313	-530.7689208984376	-328.7382812500001	1064.249877929688	-587.4165039062501	-128.2974243164063	1127.051635742188	-756.8955688476564	-95.75235748291017	1084.767578125	-701.4774780273439	-53.17485809326173	1122.961547851563	-805.4825439453127	-255.7206268310547	983.0691528320315	-969.1502075195315	-261.2110595703126	991.2282714843752	-716.0718994140626	-416.6347045898439	1052.886108398438	-849.772399902344	-420.8949584960939	1020.808166503906	-877.1870117187502	-422.7055969238282	1022.805419921875	-819.9775390625002	-292.2218017578126	743.1282958984376	-1052.214111328125	-257.4988708496094	665.7310791015626	-1055.193359375	-211.7534942626954	672.2326660156251	-1036.666381835938	-282.9107666015626	611.3181762695314	-1049.794677734375	-285.1386718750001	503.5201416015626	-1047.564331054688	-246.9788665771485	481.4454650878907	-923.7300415039065	-240.5146484375001	376.4066162109376	-1020.032836914063	-302.4608154296876	346.2917480468751	-1073.270385742188	-262.9743652343751	334.5543518066407	-1052.818603515625	-276.7102966308594	253.5238342285157	-1029.171264648438	-365.4414672851563	123.0368576049805	-1057.474731445313	-338.2000122070313	130.0831298828125	-975.491882324219	-425.2410278320314	91.31916809082033	-1019.937316894531	-220.9903259277344	51.72981262207033	-984.8581542968752	-215.1981658935547	55.13110733032228	-1033.541259765625	-253.3686065673829	42.04472351074219	-1087.5078125	-317.3345642089844	784.2863769531252	-657.5095214843751	-277.1561584472657	732.8305053710939	-662.1162719726564	-245.9393463134766	740.4426269531251	-672.5893554687501	-301.4031677246094	651.3900756835939	-674.9863891601564	-311.0599060058594	497.9438476562501	-710.2806396484376	-276.3487243652344	496.3312377929689	-835.0103149414065	-274.3820495605469	350.9848632812501	-785.4573974609377	-330.2684326171876	275.4374389648438	-730.1461181640626	-295.5249328613282	268.5155029296876	-763.9250488281251	-312.3214111328126	227.7815551757813	-802.073181152344	-391.850799560547	115.7280502319336	-769.5183105468752	-363.9608154296876	139.9233551025391	-849.8035888671877	-449.5983276367189	98.28855895996097	-825.2227783203127	-245.9552001953126	56.47191619873048	-836.6138305664065	-245.5568237304688	55.50657272338869	-794.254089355469	-283.1614379882813	36.01115036010743	-741.6704711914064	nan	nan	nan	
172	0.855	-243.7683105468751	1716.289794921875	-810.321228027344	-374.9496154785157	1595.002807617188	-896.5213623046877	-418.677215576172	1476.772094726563	-841.9158935546877	-425.9785156250001	1152.001098632813	-847.216735839844	-275.1312255859376	1418.781127929688	-828.5583496093752	-297.5995788574219	1449.329223632813	-991.1875000000002	-288.1113281250001	1260.909301757813	-1121.697875976563	-245.4508819580079	1242.62451171875	-1102.413452148438	-261.4210510253907	1198.623168945313	-1141.589233398438	-221.5554504394532	1122.340576171875	-1140.988037109375	-295.0857849121094	1092.202880859375	-1088.755126953125	-133.2934112548828	1108.130126953125	-902.8983154296877	-84.03718566894533	1065.690185546875	-940.9653930664065	-74.46389007568361	1114.2548828125	-844.603210449219	-326.0089111328126	1438.609619140625	-669.4134521484376	-328.3859558105469	1241.644897460938	-553.6736450195314	-285.1978759765626	1221.348022460938	-566.8202514648439	-309.6980285644532	1175.476318359375	-535.1842651367189	-278.9590759277344	1110.474731445313	-529.7204589843751	-326.7680053710938	1064.24365234375	-586.1869506835939	-126.7591400146485	1127.513793945313	-756.0136108398439	-93.92170715332033	1085.403930664063	-700.5415649414064	-51.51901245117189	1123.496826171875	-804.7360839843752	-255.8789978027344	982.9729003906252	-968.7585449218752	-261.1287231445313	991.1505126953127	-715.5928344726564	-416.7018432617189	1052.82470703125	-849.2329711914065	-421.0322265625001	1020.675720214844	-876.6416625976565	-423.540252685547	1022.422180175781	-819.427429199219	-292.1177368164063	743.0061035156251	-1051.842651367188	-257.3521728515626	665.7538452148439	-1054.953735351563	-211.5298461914063	672.2407226562501	-1036.371215820313	-282.6846923828126	611.2228393554689	-1049.537475585938	-284.5061340332032	503.4657287597657	-1047.407348632813	-246.4009246826172	481.488006591797	-923.4773559570315	-240.1390533447266	376.2896118164063	-1019.948669433594	-302.0416870117188	346.2205810546876	-1073.134155273438	-262.5356140136719	334.4677124023438	-1052.744873046875	-276.5659179687501	253.5378875732422	-1029.181884765625	-365.3967285156251	123.0880966186524	-1057.490600585938	-338.1320800781251	130.1190948486328	-975.4436645507815	-425.3014526367189	91.4396438598633	-1019.934936523438	-221.0500793457032	51.75283432006837	-984.8436279296877	-215.213363647461	55.17621231079103	-1033.526245117188	-253.4132843017579	42.09900665283204	-1087.455688476563	-317.3023986816407	784.2325439453127	-657.0653076171876	-277.1107788085938	732.7349243164064	-661.7905273437501	-245.8833007812501	740.3793334960939	-672.2478637695314	-301.3875427246094	651.3043212890626	-674.6056518554689	-311.0266113281251	497.8759155273439	-709.9860229492189	-276.4534301757813	496.2828674316407	-834.719665527344	-274.2507019042969	350.9277648925782	-785.1166992187502	-330.2562255859376	275.3565673828126	-729.9794921875001	-295.5032653808594	268.3914184570313	-763.7264404296876	-312.2437133789063	227.7526855468751	-801.9043579101565	-391.8693237304689	115.7206192016602	-769.4470825195315	-363.8486938476563	139.9269409179688	-849.7396240234377	-449.6007385253907	98.23841094970706	-825.1480102539065	-245.9630889892579	56.53183746337892	-836.6116333007815	-245.5444641113282	55.47768020629884	-794.2436523437502	-283.1614379882813	35.98009872436524	-741.6732788085939	nan	nan	nan	
